<svg width="32" height="29" viewBox="0 0 32 29" fill="none" xmlns="http://www.w3.org/2000/svg">
<path d="M30.6288 26.245H1.2762C0.570302 26.245 0 26.7634 0 27.405V28.71C0 28.8695 0.143573 29 0.31905 29H31.586C31.7615 29 31.905 28.8695 31.905 28.71V27.405C31.905 26.7634 31.3347 26.245 30.6288 26.245ZM5.8107 23.2C5.89047 23.2 5.97023 23.1928 6.04999 23.1819L12.758 22.1125C12.8378 22.098 12.9136 22.0654 12.9694 22.011L29.8751 6.64462C29.912 6.61109 29.9414 6.57125 29.9614 6.5274C29.9814 6.48355 29.9917 6.43654 29.9917 6.38906C29.9917 6.34159 29.9814 6.29458 29.9614 6.25072C29.9414 6.20687 29.912 6.16704 29.8751 6.1335L23.2468 0.105125C23.171 0.0362501 23.0713 0 22.9636 0C22.856 0 22.7563 0.0362501 22.6805 0.105125L5.77481 15.4715C5.71499 15.5259 5.6791 15.5911 5.66314 15.6636L4.48664 21.7609C4.44785 21.9551 4.46171 22.1549 4.52703 22.3432C4.59235 22.5314 4.70717 22.7023 4.86153 22.8411C5.12474 23.0731 5.45576 23.2 5.8107 23.2Z" fill="#4B00AA"/>
</svg>
