<svg width="138" height="171" viewBox="0 0 138 171" fill="none" xmlns="http://www.w3.org/2000/svg">
<path d="M3.75781 20.3V150.7C3.75781 155.023 5.47513 159.169 8.53197 162.226C11.5888 165.283 15.7348 167 20.0578 167H117.858C122.181 167 126.327 165.283 129.384 162.226C132.44 159.169 134.158 155.023 134.158 150.7V55.6873C134.158 53.5158 133.723 51.3663 132.881 49.3649C132.038 47.3635 130.804 45.5507 129.252 44.0328L93.0655 8.6455C90.0204 5.66796 85.9308 4.00053 81.6718 4H20.0578C15.7348 4 11.5888 5.71732 8.53197 8.77416C5.47513 11.831 3.75781 15.977 3.75781 20.3V20.3Z" fill="#4B00AA" stroke="white" stroke-width="7" stroke-linecap="round" stroke-linejoin="round"/>
<path d="M44.5078 93.6499H93.4078Z" fill="#4B00AA"/>
<path d="M44.5078 93.6499H93.4078" stroke="white" stroke-width="7" stroke-linecap="round" stroke-linejoin="round"/>
<path d="M44.5078 126.25H68.9578Z" fill="#4B00AA"/>
<path d="M44.5078 126.25H68.9578" stroke="white" stroke-width="7" stroke-linecap="round" stroke-linejoin="round"/>
<path d="M85.2578 4V36.6C85.2578 40.923 86.9751 45.069 90.032 48.1258C93.0888 51.1827 97.2348 52.9 101.558 52.9H134.158" fill="#4B00AA"/>
<path d="M85.2578 4V36.6C85.2578 40.923 86.9751 45.069 90.032 48.1258C93.0888 51.1827 97.2348 52.9 101.558 52.9H134.158" stroke="white" stroke-width="7" stroke-linejoin="round"/>
</svg>
